<svg width="745" height="394" viewBox="0 0 745 394" fill="none" xmlns="http://www.w3.org/2000/svg">
    <defs>
        <mask  xlink:href="mask0_45_115" id="mask0_45_115" style='mask-type: alpha' maskUnits="userSpaceOnUse" x="0" y="0" width="745" height="394">
            <path d="M685.158 3.07407C678.145 2.53448 678.033 6.51268 678.115 6.96233L676.392 3.07406L675.662 3.74857C675.662 3.52375 675.467 3.07406 674.688 3.07406C673.909 3.07406 673.064 3.37385 672.74 3.52374C670.548 3.67362 664.902 5.71761 663.148 5.53775C660.957 5.31292 647.659 1.72507 644.25 2.17472C645.343 2.6793 646.181 2.91848 646.695 3.01633C646.874 3.02162 647.034 3.04 647.172 3.07406C647.075 3.07406 646.915 3.05802 646.695 3.01633C645.304 2.975 642.812 3.73019 641.085 4.04907C639.137 4.40879 638.975 4.04906 639.137 3.82423L638.163 4.2739L636.945 3.82423L634.023 4.04906C632.238 4.19895 628.423 2.98411 627.449 2.62439C626.231 2.17474 626.962 2.84923 626.475 2.84923C626.085 2.4895 625.339 2.24966 625.014 2.17472C624.527 2.39955 623.455 2.84923 623.066 2.84923C622.822 2.6244 621.118 2.17472 620.631 2.17472C620.436 2.53444 620.387 2.77428 620.387 2.84922C620.225 2.6244 619.852 2.17472 619.657 2.17472C619.413 2.17472 618.439 1.94989 617.952 2.17472C617.797 2.2463 617.74 2.3914 617.737 2.55908C617.831 2.8001 617.91 3.10149 617.952 3.2989C617.855 3.11839 617.733 2.81287 617.737 2.55908C617.653 2.34254 617.558 2.17472 617.465 2.17472C617.222 2.17472 616.004 2.62439 615.761 2.62439C615.517 2.62439 613.569 2.62437 612.595 2.17472C611.621 1.72507 610.647 2.17473 610.16 2.39955C609.673 2.62438 607.482 3.5237 606.021 2.84922C604.56 2.17475 594.333 2.62441 593.116 3.07406C591.898 2.62441 590.924 2.39955 590.437 2.39955C590.047 2.39955 589.95 2.99913 589.95 3.29889C589.869 3.14901 589.609 2.80425 589.22 2.62439C588.733 2.39956 588.002 3.07406 587.272 3.07406C586.541 3.07406 584.35 2.39954 583.619 2.17472C583.035 1.99486 582.39 5.23797 581.903 5.53774C581.903 5.53774 581.379 3.51658 581.184 3.33672C580.941 3.1119 580.454 2.88705 579.236 2.88705C578.262 2.88705 578.181 3.18684 578.262 3.33672L578.019 2.88705L575.34 2.88705L574.61 3.56156L573.879 2.88705C573.685 2.88705 572.499 2.17472 571.931 2.17471C571.444 2.39954 570.422 2.84922 570.227 2.84922C570.032 2.84922 569.983 2.54943 569.983 2.39955C569.09 2.17472 567.013 1.77011 565.844 1.94997C564.675 2.12983 562.629 3.33673 562.304 3.56156L563.165 2.39955C562.841 2.32461 561.948 2.17471 560.974 2.17471C559.756 2.17471 560 2.62438 559.513 2.62438C559.123 2.62438 557.727 0.900013 557.078 0.75013L555.86 1.42464C555.049 1.12487 553.084 0.525384 551.721 0.525384L548.555 0.525383C547.581 0.525383 545.877 0.974884 545.146 1.19971C544.253 1.19971 542.273 2.57941 541.494 2.39955C540.52 2.17472 540.033 2.39956 539.789 2.62438C539.546 2.39956 539.059 2.17471 538.572 2.17471C538.182 2.17471 537.598 2.62439 537.354 2.84922C537.192 2.62439 536.819 2.17471 536.624 2.17471L534.676 2.17471C533.702 2.17471 533.779 3.24003 533.44 3.04465L530.59 0.525382L513.842 1.94996C494.6 0.52534 481.52 5.70329 478.208 6.96232C477.234 4.93889 469.906 2.84921 466.01 2.84921C462.114 2.84921 442.147 5.54719 439.956 4.64789C443.608 3.52377 444.582 2.39955 450.182 2.62437C444.338 1.72507 435.085 2.39958 428.511 3.29888C421.937 4.19818 418.284 2.47301 415.119 1.79854C411.953 1.12407 411.466 1.34902 411.71 0.674544C411.904 0.134963 411.304 3.86638e-05 410.979 3.86355e-05C410.33 0.599568 408.934 1.79854 408.544 1.79854C408.057 1.79854 406.84 4.79912e-05 405.135 0.224873C403.431 0.449699 398.561 4.64789 393.934 4.64789C389.308 4.64789 376.402 4.19818 363.253 3.29887C369.584 5.09748 381.029 5.9968 382.246 7.7954C375.185 7.12092 374.211 5.99682 353.026 4.64788C331.842 3.29894 301.647 3.7486 297.507 5.09755C293.368 6.4465 288.985 5.77202 288.741 5.09755C287.767 5.09755 275.949 6.60616 274.975 7.28064C274.001 6.60616 274.102 11.6071 272.783 7.95514C272.54 7.28066 271.566 6.60613 270.105 6.60613C268.644 6.60613 264.635 3.07405 264.148 3.5237L263.417 4.19821C263.58 3.89844 263.758 3.29886 263.174 3.29886C262.443 3.29886 258.791 4.64788 258.791 4.87271C258.791 5.09754 258.547 3.07404 255.869 3.29886C253.191 3.52369 249.538 3.74854 249.051 3.97337C248.661 4.15323 245.967 3.29884 244.668 2.84919C242.477 3.07402 230.605 9.81153 227.926 11.3853C225.248 12.9591 226.709 9.36187 222.813 9.13705C218.917 8.91222 215.021 9.81155 213.803 9.81155C212.342 9.3619 211.552 1.94996 208.387 2.39961C205.854 2.75933 201.65 4.19823 199.864 4.87271C196.293 5.09753 187.592 5.54712 181.358 5.54712C173.566 5.54712 168.453 2.17478 160.905 2.3996C152.626 4.64786 145.321 8.02017 140.451 6.89604C135.581 5.77191 117.805 2.62436 110.988 2.84918C117.026 4.82765 122.27 7.57059 124.136 8.69472C121.945 7.79542 114.201 5.72702 100.76 4.64786C87.3192 3.5687 83.7959 3.59864 83.7148 3.74852L83.4712 3.07401C81.6856 3.52366 78.1143 4.468 78.1143 4.64786C78.1143 4.87268 75.9227 2.39953 75.1922 2.84918C74.6078 3.2089 72.1891 4.04831 71.0528 4.42302L67.1569 3.29885L66.4263 4.19819C66.3451 3.89842 66.1342 3.29885 65.9394 3.29885L50.599 3.29885L49.1381 4.64786L46.9466 3.74852C41.265 4.49793 29.7068 6.04175 28.9276 6.22161C27.9536 7.34574 27.9537 9.14435 27.4667 8.46987C26.9797 7.7954 25.2751 5.54711 24.3011 5.54711C23.3271 5.54711 23.5706 5.32234 20.1616 4.87269C17.4344 4.51297 13.305 4.91884 9.97715 4.46919C9.97715 4.46919 8.24073 6.27279 8.55188 8.46987C9.10214 12.3553 7.67864 12.7026 7.48278 15.8662C4.9884 14.7977 8.55188 30.4678 8.55188 30.4678C8.55188 30.4678 9.10285 36.1664 6.77012 36.1664C3.9194 36.1664 5.86977 38.3611 6.77012 39.0155C10.6442 41.8316 7.90465 51.2578 6.80819 51.8209C7.22764 51.7891 7.85047 52.0305 6.77012 53.9741C4.98842 57.1795 5.7011 56.111 6.77012 57.1795C7.83913 58.248 10.2424 62.3109 10.6897 66.0834C11.3062 71.2827 7.35674 73.7022 6.77011 78.905C6.41168 82.0838 5.34476 83.8912 6.77011 87.0966C8.19547 90.302 6.77011 88.8773 6.77011 88.8773C6.77011 88.8773 7.48279 90.3019 6.77011 91.3704C6.55822 91.6881 7.49886 91.1317 7.48277 92.439C7.46512 93.8733 6.69391 97.026 6.77011 98.4936C4.98842 99.2059 6.77011 100.447 6.77011 101.699L6.77011 104.389L6.77011 106.685L6.77011 107.041L6.77011 109.823L6.77011 110.209C6.77011 113.47 4.63227 113.637 4.63227 114.177L4.63227 116.553L4.63227 117.027L4.63227 118.123C4.63227 118.228 5.34493 118.689 5.34493 118.794C5.34493 119.609 4.63227 120.069 4.63227 120.889L4.63227 121.305C4.63227 121.996 1.78163 124.114 1.78163 124.808C1.78163 125.296 4.27587 125.784 4.27587 126.274C4.27587 126.828 3.56334 126.745 3.56334 127.301C3.56334 127.461 7.83912 128.606 7.83912 128.767C7.83912 129.752 4.63227 129.913 4.63227 130.904C4.63227 131.28 2.49429 131.049 2.49429 131.427C2.49429 131.825 1.06901 132.998 1.06901 133.397C1.06901 134.226 6.05749 151.562 6.05749 152.395L6.05749 152.872L6.05749 156.23L6.05749 156.624C6.05749 157.275 3.95624 158.724 2.22888 160.032L-4.43583e-05 162.245C-4.44562e-05 163.365 5.70126 164.739 5.34492 166.519C5.34492 166.653 2.81983 181.452 2.2335 176.571C2.95858 196.279 7.57349 215.454 7.83911 234.546C7.89562 238.609 6.5856 242.781 5.0922 246.901L2.13797 260.189C2.13797 260.189 0.841275 266.111 3.20698 269.449C12.5523 282.271 7.43063 312.188 4.42793 316.818C1.42523 321.448 11.759 320.38 4.66059 325.01C7.48294 329.996 2.30451 341.866 2.49427 347.803C2.8421 358.686 4.19574 364.277 4.9886 371.31C5.18351 373.038 9.97735 375.584 4.9886 379.667C5.93612 386.921 6.76991 390.926 6.76991 390.926C13.7827 391.465 13.8947 387.487 13.8135 387.038L15.5358 390.926L16.2663 390.251C16.2663 390.476 16.4611 390.926 17.2403 390.926C18.0195 390.926 18.8636 390.626 19.1882 390.476C21.3797 390.326 27.0265 388.282 28.7797 388.462C30.9712 388.687 44.2688 392.275 47.6778 391.825C46.5849 391.321 45.7475 391.081 45.2328 390.984C45.0544 390.978 44.8941 390.96 44.7558 390.926C44.8528 390.926 45.0135 390.942 45.2328 390.984C46.6246 391.025 49.1166 390.27 50.8433 389.951C52.7913 389.591 52.9536 389.951 52.7913 390.176L53.7653 389.726L54.9828 390.176L57.9046 389.951C59.6903 389.801 63.5052 391.016 64.4792 391.376C65.6967 391.825 64.9661 391.151 65.4531 391.151C65.8427 391.51 66.5894 391.75 66.914 391.825C67.401 391.6 68.4725 391.151 68.8621 391.151C69.1056 391.376 70.8101 391.825 71.2971 391.825C71.4919 391.465 71.5405 391.226 71.5405 391.151C71.7028 391.376 72.0763 391.825 72.2711 391.825C72.5146 391.825 73.4885 392.05 73.9755 391.825C74.1305 391.754 74.1878 391.609 74.1905 391.441C74.097 391.2 74.0183 390.898 73.9755 390.701C74.0732 390.882 74.1945 391.187 74.1905 391.441C74.2745 391.657 74.3703 391.825 74.4625 391.825C74.706 391.825 75.9235 391.376 76.167 391.376C76.4105 391.376 78.3586 391.376 79.3326 391.825C80.3066 392.275 81.2805 391.825 81.7675 391.6C82.2545 391.376 84.446 390.476 85.907 391.151C87.368 391.825 97.5952 391.376 98.8127 390.926C100.03 391.376 101.005 391.6 101.492 391.6C101.881 391.6 101.979 391.001 101.979 390.701C102.06 390.851 102.32 391.196 102.709 391.376C103.196 391.6 103.927 390.926 104.657 390.926C105.388 390.926 107.579 391.6 108.31 391.825C108.894 392.005 109.539 388.762 110.026 388.462C110.026 388.462 110.55 390.483 110.745 390.663C110.988 390.888 111.475 391.113 112.693 391.113C113.667 391.113 113.748 390.813 113.667 390.663L113.91 391.113L116.589 391.113L117.319 390.438L118.05 391.113C118.245 391.113 119.43 391.825 119.998 391.825C120.485 391.6 121.507 391.151 121.702 391.151C121.897 391.151 121.946 391.45 121.946 391.6C122.839 391.825 124.917 392.23 126.085 392.05C127.254 391.87 129.3 390.663 129.625 390.438L128.764 391.6C129.088 391.675 129.981 391.825 130.955 391.825C132.173 391.825 131.929 391.376 132.416 391.376C132.806 391.376 134.202 393.1 134.851 393.25L136.069 392.575C136.88 392.875 138.845 393.475 140.208 393.475L143.374 393.475C144.348 393.475 146.052 393.025 146.783 392.8C147.675 392.8 149.656 391.42 150.435 391.6C151.409 391.825 151.896 391.6 152.14 391.376C152.383 391.6 152.87 391.825 153.357 391.825C153.747 391.825 154.331 391.376 154.575 391.151C154.737 391.376 155.11 391.825 155.305 391.825L157.253 391.825C158.227 391.825 158.15 390.76 158.488 390.955L161.339 393.475L178.087 392.05C196.923 393.445 209.854 388.512 213.498 387.123L213.721 387.038C214.695 389.061 222.024 391.151 225.92 391.151C229.816 391.151 249.783 388.453 251.974 389.352C248.322 390.476 247.348 391.6 241.747 391.376C247.591 392.275 256.844 391.6 263.418 390.701C269.993 389.802 273.645 391.527 276.811 392.201C279.976 392.876 280.463 392.651 280.22 393.325C280.025 393.865 280.626 394 280.95 394C281.6 393.4 282.996 392.201 283.385 392.201C283.872 392.201 285.09 394 286.794 393.775C288.499 393.55 293.369 389.352 297.995 389.352C302.622 389.352 315.527 389.802 328.676 390.701C322.345 388.902 310.901 388.003 309.683 386.205C316.745 386.879 317.719 388.003 338.903 389.352C360.087 390.701 390.281 390.251 394.42 388.902C398.56 387.553 402.943 388.228 403.186 388.902C404.16 388.902 415.979 387.394 416.953 386.719C417.927 387.394 417.826 382.393 419.144 386.045C419.388 386.719 420.362 387.394 421.823 387.394C423.284 387.394 427.292 390.926 427.779 390.476L428.51 389.802C428.348 390.101 428.169 390.701 428.753 390.701C429.484 390.701 433.136 389.352 433.136 389.127C433.136 388.902 433.38 390.926 436.058 390.701C438.737 390.476 442.389 390.251 442.876 390.027C443.266 389.847 445.961 390.701 447.259 391.151C449.451 390.926 461.323 384.188 464.001 382.615C466.68 381.041 465.219 384.638 469.115 384.863C473.011 385.088 476.906 384.188 478.124 384.188C479.585 384.638 480.375 392.05 483.54 391.6C486.073 391.241 490.277 389.802 492.063 389.127C495.634 388.902 504.335 388.453 510.568 388.453C518.36 388.453 523.474 391.825 531.022 391.6C539.301 389.352 546.606 385.98 551.476 387.104C556.346 388.228 574.122 391.376 580.94 391.151C574.901 389.172 569.658 386.429 567.791 385.305C569.983 386.205 577.726 388.273 591.167 389.352C591.167 389.352 593.45 388.322 593.977 386.167C594.911 382.355 596.361 382.561 597.719 379.697C599.638 381.615 602.155 365.743 602.155 365.743C602.155 365.743 603.761 360.248 605.927 361.114C608.574 362.172 607.579 359.411 606.986 358.469C604.436 354.416 610.484 346.681 611.711 346.566C611.31 346.439 610.821 345.984 612.546 344.581C615.392 342.266 614.333 342.994 613.738 341.605C613.143 340.216 612.421 335.551 613.408 331.883C614.769 326.827 619.335 326.047 621.814 321.434C623.328 318.616 624.99 317.334 624.859 313.829C624.727 310.324 625.52 312.176 625.52 312.176C625.52 312.176 625.388 310.588 626.447 309.861C626.762 309.645 625.682 309.812 626.183 308.604C626.732 307.279 628.62 304.639 629.095 303.248C631.014 303.248 629.821 301.434 630.286 300.272L631.286 297.774L632.14 295.643L632.272 295.312L633.306 292.73L633.45 292.371C634.662 289.344 636.709 289.982 636.91 289.481L637.793 287.275L637.969 286.835L638.376 285.818C638.415 285.72 637.925 285.027 637.964 284.929C638.267 284.173 639.1 284.01 639.404 283.25L639.559 282.863C639.816 282.222 643.25 281.314 643.508 280.669C643.689 280.217 641.555 278.837 641.737 278.382C641.943 277.868 642.574 278.21 642.78 277.693C642.84 277.544 639.296 274.894 639.355 274.744C639.721 273.83 642.759 274.871 643.127 273.951C643.267 273.602 645.166 274.61 645.307 274.26C645.455 273.89 647.214 273.33 647.362 272.96C647.67 272.19 649.483 254.242 649.792 253.469L649.97 253.027L651.218 249.909L651.364 249.543C651.606 248.939 652.37 247.695 653.042 246.564L654.104 244.617C654.52 243.577 654.712 242.141 655.704 240.62C655.754 240.496 663.6 227.694 662.329 232.444C668.982 213.877 671.824 194.361 678.675 176.537C683.01 165.255 689.918 162.833 695.949 145.852C702.559 123.592 707.915 104.604 712.423 101.421C716.932 98.2372 706.941 95.3919 715.252 93.7292C714.485 88.0519 723.706 78.9538 725.736 73.3711C729.459 63.1383 730.28 57.4446 732.158 50.6211C732.62 48.9437 729.115 44.8007 735.265 42.8616C736.052 39.0168 736.411 36.1792 739.545 33.0473C742.678 29.9154 741.382 24.6018 741.382 20.5627C741.382 16.5235 748.729 9.16551 742.484 9.16551C736.238 9.16551 741.537 9.62448 737.785 5.87505C734.784 2.87551 721.639 2.54447 720.808 5.87505C716.629 5.87505 714.38 6.96234 710.889 6.96234C706.525 6.96234 709.052 4.2739 693.989 6.96234C692.421 6.96234 687.448 4.37016 685.158 3.07407Z" fill="#D9D9D9"/>
        </mask>
        <mask xlink:href="mask0_45_111" id="mask0_45_111" style='mask-type: alpha' maskUnits="userSpaceOnUse" x="0" y="0" width="741" height="392">
            <path d="M59.5205 3.05847C66.4956 2.5216 66.607 6.47961 66.5263 6.927L68.2394 3.05847L68.9659 3.72955C68.9659 3.50585 69.1597 3.05847 69.9347 3.05847C70.7097 3.05847 71.5493 3.35671 71.8722 3.50585C74.052 3.65496 79.6683 5.68859 81.4121 5.50964C83.5918 5.28594 96.8181 1.7163 100.209 2.16369C99.1217 2.6657 98.2888 2.90365 97.7768 3.001C97.5994 3.00628 97.44 3.02456 97.3025 3.05846C97.3989 3.05846 97.5588 3.04247 97.7768 3.001C99.1612 2.95989 101.64 3.71123 103.357 4.02849C105.295 4.3864 105.456 4.02849 105.295 3.8048L106.264 4.25219L107.475 3.8048L110.381 4.02849C112.157 4.17763 115.951 2.96895 116.92 2.61107C118.131 2.16369 117.404 2.83477 117.889 2.83477C118.276 2.47686 119.019 2.23824 119.342 2.16369C119.826 2.38735 120.892 2.83477 121.279 2.83477C121.522 2.61107 123.217 2.16369 123.701 2.16369C123.895 2.52157 123.944 2.76018 123.944 2.83477C124.105 2.61107 124.476 2.16369 124.67 2.16369C124.912 2.16369 125.881 1.93999 126.365 2.16369C126.52 2.23488 126.577 2.37926 126.579 2.54607C126.486 2.78588 126.408 3.08574 126.365 3.28215C126.463 3.10256 126.583 2.79857 126.579 2.54607C126.663 2.33065 126.758 2.16369 126.85 2.16369C127.092 2.16369 128.303 2.61107 128.545 2.61107C128.787 2.61107 130.725 2.61104 131.694 2.16368C132.662 1.7163 133.631 2.16368 134.116 2.38738C134.6 2.61104 136.78 3.50582 138.233 2.83477C139.686 2.16371 149.858 2.61107 151.069 3.05846C152.28 2.61107 153.249 2.38738 153.733 2.38738C154.121 2.38738 154.217 2.9839 154.217 3.28215C154.298 3.13301 154.557 2.79 154.944 2.61107C155.428 2.38738 156.155 3.05846 156.882 3.05846C157.608 3.05846 159.788 2.38735 160.514 2.16368C161.096 1.98473 161.737 5.21138 162.222 5.50963C162.222 5.50963 162.743 3.49873 162.936 3.31978C163.178 3.09609 163.663 2.87239 164.874 2.87239C165.843 2.87239 165.923 3.17064 165.842 3.31978L166.085 2.87239L168.749 2.87239L169.475 3.54347L170.202 2.87239C170.396 2.87239 171.574 2.16368 172.139 2.16368C172.624 2.38734 173.641 2.83476 173.835 2.83476C174.029 2.83476 174.077 2.53648 174.077 2.38737C174.965 2.16368 177.032 1.76112 178.194 1.94005C179.357 2.119 181.392 3.31978 181.715 3.54347L180.858 2.38737C181.181 2.31279 182.069 2.16368 183.038 2.16368C184.249 2.16368 184.007 2.61107 184.491 2.61107C184.879 2.61107 186.267 0.89543 186.913 0.746322L188.124 1.4174C188.931 1.11915 190.885 0.522719 192.242 0.522719L195.39 0.522719C196.359 0.522718 198.054 0.969923 198.781 1.19362C199.669 1.19362 201.639 2.5663 202.414 2.38737C203.382 2.16368 203.867 2.38737 204.109 2.61107C204.351 2.38737 204.836 2.16368 205.32 2.16368C205.707 2.16368 206.289 2.61107 206.531 2.83476C206.692 2.61107 207.064 2.16368 207.257 2.16368L209.195 2.16368C210.164 2.16368 210.087 3.22358 210.424 3.02919L213.259 0.522717L229.917 1.94004C249.056 0.522653 262.066 5.67432 265.359 6.92698C266.328 4.9138 273.617 2.83475 277.492 2.83475C281.367 2.83475 301.227 5.51902 303.407 4.6243C299.774 3.50586 298.805 2.38736 293.235 2.61106C299.047 1.71631 308.251 2.38739 314.79 3.28214C321.329 4.17685 324.962 2.46045 328.11 1.7894C331.259 1.11835 331.743 1.34216 331.501 0.671114C331.307 0.134279 331.905 3.20191e-05 332.228 3.19909e-05C332.873 0.596529 334.262 1.7894 334.649 1.7894C335.134 1.7894 336.345 3.1631e-05 338.04 0.223725C339.735 0.447419 344.579 4.6243 349.181 4.6243C353.783 4.6243 366.619 4.17685 379.697 3.28213C373.4 5.07159 362.017 5.96634 360.806 7.75583C367.83 7.08478 368.799 5.96637 389.869 4.62429C410.94 3.28219 440.973 3.72955 445.09 5.07168C449.207 6.41378 453.567 5.74273 453.809 5.07168C454.778 5.07168 466.533 6.57262 467.502 7.24367C468.47 6.57262 468.37 11.5482 469.681 7.91475C469.924 7.2437 470.892 6.57259 472.345 6.57259C473.799 6.57259 477.786 3.05843 478.27 3.50582L478.997 4.1769C478.835 3.87865 478.658 3.28212 479.239 3.28212C479.966 3.28212 483.599 4.62429 483.599 4.84798C483.599 5.07164 483.841 3.05843 486.505 3.28212C489.169 3.50579 492.802 3.72951 493.286 3.9532C493.674 4.13213 496.354 3.28209 497.646 2.83473C499.825 3.0584 511.634 9.7617 514.298 11.3275C516.962 12.8933 515.509 9.31435 519.384 9.09065C523.259 8.86696 527.134 9.76173 528.345 9.76173C529.798 9.31438 530.584 1.94005 533.732 2.3874C536.251 2.74531 540.433 4.17692 542.209 4.84798C545.761 5.07164 554.415 5.51896 560.615 5.51896C568.365 5.51896 573.451 2.16374 580.959 2.3874C589.194 4.62425 596.46 7.97944 601.303 6.86103C606.147 5.74259 623.827 2.61103 630.608 2.83472C624.602 4.80314 619.387 7.53214 617.53 8.65058C619.71 7.75584 627.412 5.69794 640.781 4.62427C654.15 3.55057 657.654 3.58036 657.735 3.7295L657.977 3.05841C659.753 3.50577 663.305 4.44532 663.305 4.62427C663.305 4.84793 665.485 2.38733 666.212 2.83472C666.793 3.1926 669.199 4.02774 670.329 4.40058L674.204 3.28211L674.93 4.17688C675.011 3.87863 675.221 3.28211 675.415 3.28211L690.673 3.28211L692.126 4.62427L694.305 3.72949C699.957 4.4751 711.453 6.01108 712.228 6.19003C713.196 7.30844 713.196 9.09793 713.681 8.42688C714.165 7.75583 715.861 5.51895 716.829 5.51895C717.798 5.51895 717.556 5.29532 720.947 4.84796C723.659 4.49005 727.767 4.89386 731.076 4.4465C731.076 4.4465 732.804 6.24093 732.494 8.42688C731.947 12.2926 733.363 12.6381 733.557 15.7857C736.038 14.7226 732.494 30.3132 732.494 30.3132C732.494 30.3132 731.946 35.9828 734.266 35.9828C737.102 35.9828 735.162 38.1663 734.266 38.8175C730.413 41.6192 733.138 50.9976 734.228 51.5579C733.811 51.5262 733.192 51.7664 734.266 53.7001C736.038 56.8892 735.329 55.8262 734.266 56.8892C733.203 57.9523 730.813 61.9946 730.368 65.748C729.755 70.9209 733.683 73.3281 734.266 78.5044C734.623 81.6672 735.684 83.4653 734.266 86.6544C732.849 89.8436 734.266 88.4261 734.266 88.4261C734.266 88.4261 733.557 89.8435 734.266 90.9066C734.477 91.2227 733.541 90.6692 733.557 91.9698C733.575 93.3968 734.342 96.5335 734.266 97.9936C736.038 98.7023 734.266 99.9373 734.266 101.183L734.266 103.859L734.266 106.144L734.266 106.498L734.266 109.265L734.266 109.649C734.266 112.894 736.393 113.06 736.393 113.598L736.393 115.962L736.393 116.433L736.393 117.523C736.393 117.628 735.684 118.087 735.684 118.191C735.684 119.002 736.393 119.46 736.393 120.275L736.393 120.69C736.393 121.377 739.228 123.484 739.228 124.174C739.228 124.66 736.747 125.146 736.747 125.633C736.747 126.184 737.456 126.101 737.456 126.655C737.456 126.814 733.203 127.953 733.203 128.113C733.203 129.093 736.393 129.254 736.393 130.239C736.393 130.614 738.519 130.384 738.519 130.76C738.519 131.155 739.937 132.323 739.937 132.72C739.937 133.545 734.975 150.793 734.975 151.622L734.975 152.096L734.975 155.436L734.975 155.829C734.975 156.476 737.065 157.918 738.783 159.22L741 161.422C741 162.536 735.329 163.902 735.684 165.674C735.684 165.807 738.195 180.531 738.778 175.674C738.057 195.282 733.467 214.36 733.203 233.355C733.147 237.398 734.45 241.549 735.935 245.648L738.874 258.869C738.874 258.869 740.163 264.76 737.81 268.082C728.515 280.838 733.609 310.603 736.596 315.21C739.582 319.816 729.304 318.753 736.364 323.36C733.557 328.321 738.708 340.131 738.519 346.038C738.173 356.865 736.827 362.428 736.038 369.425C735.844 371.145 731.076 373.677 736.038 377.74C735.096 384.957 734.266 388.941 734.266 388.941C727.291 389.478 727.18 385.52 727.261 385.073L725.548 388.941L724.821 388.27C724.821 388.494 724.627 388.941 723.852 388.941C723.077 388.941 722.238 388.643 721.915 388.494C719.735 388.345 714.119 386.311 712.375 386.49C710.195 386.714 696.969 390.284 693.578 389.836C694.665 389.334 695.498 389.096 696.01 388.999C696.187 388.994 696.347 388.975 696.484 388.941C696.388 388.941 696.228 388.957 696.01 388.999C694.626 389.04 692.147 388.289 690.43 387.971C688.492 387.614 688.331 387.971 688.492 388.195L687.523 387.748L686.312 388.195L683.406 387.971C681.63 387.822 677.836 389.031 676.867 389.389C675.656 389.836 676.383 389.165 675.898 389.165C675.511 389.523 674.768 389.762 674.445 389.836C673.961 389.613 672.895 389.165 672.508 389.165C672.265 389.389 670.57 389.836 670.086 389.836C669.892 389.478 669.844 389.24 669.844 389.165C669.682 389.389 669.311 389.836 669.117 389.836C668.875 389.836 667.906 390.06 667.422 389.836C667.268 389.765 667.211 389.621 667.208 389.454C667.301 389.214 667.379 388.914 667.422 388.718C667.324 388.897 667.204 389.201 667.208 389.454C667.124 389.669 667.029 389.836 666.937 389.836C666.695 389.836 665.484 389.389 665.242 389.389C665 389.389 663.062 389.389 662.093 389.836C661.125 390.284 660.156 389.836 659.672 389.613C659.187 389.389 657.007 388.494 655.554 389.165C654.101 389.836 643.929 389.389 642.718 388.942C641.507 389.389 640.538 389.613 640.053 389.613C639.666 389.613 639.569 389.016 639.569 388.718C639.488 388.867 639.23 389.21 638.842 389.389C638.358 389.613 637.631 388.942 636.905 388.942C636.178 388.942 633.998 389.613 633.272 389.836C632.69 390.015 632.049 386.789 631.565 386.49C631.565 386.49 631.044 388.501 630.85 388.68C630.608 388.904 630.123 389.128 628.912 389.128C627.943 389.128 627.863 388.829 627.943 388.68L627.701 389.128L625.037 389.128L624.311 388.456L623.584 389.128C623.39 389.128 622.212 389.836 621.646 389.836C621.162 389.613 620.145 389.165 619.951 389.165C619.757 389.165 619.709 389.463 619.709 389.613C618.821 389.836 616.754 390.239 615.592 390.06C614.429 389.881 612.394 388.68 612.071 388.456L612.928 389.613C612.605 389.687 611.717 389.836 610.748 389.836C609.537 389.836 609.779 389.389 609.295 389.389C608.907 389.389 607.519 391.105 606.873 391.254L605.662 390.583C604.855 390.881 602.901 391.477 601.545 391.477L598.396 391.477C597.427 391.477 595.732 391.03 595.005 390.806C594.117 390.806 592.148 389.434 591.373 389.613C590.404 389.836 589.919 389.613 589.677 389.389C589.435 389.613 588.951 389.836 588.466 389.836C588.079 389.836 587.498 389.389 587.255 389.165C587.094 389.389 586.722 389.836 586.529 389.836L584.591 389.836C583.622 389.836 583.699 388.776 583.363 388.971L580.527 391.477L563.869 390.06C545.134 391.447 532.272 386.54 528.648 385.157L528.426 385.073C527.458 387.086 520.168 389.165 516.293 389.165C512.418 389.165 492.559 386.481 490.379 387.376C494.012 388.494 494.98 389.613 500.551 389.389C494.738 390.284 485.535 389.613 478.996 388.718C472.457 387.823 468.824 389.539 465.675 390.21C462.527 390.882 462.043 390.658 462.285 391.329C462.478 391.866 461.881 392 461.558 392C460.912 391.403 459.524 390.211 459.136 390.211C458.652 390.211 457.441 392 455.746 391.776C454.05 391.553 449.206 387.376 444.605 387.376C440.003 387.376 427.167 387.823 414.089 388.718C420.386 386.928 431.769 386.034 432.98 384.244C425.956 384.915 424.987 386.034 403.917 387.376C382.846 388.718 352.815 388.27 348.698 386.928C344.58 385.586 340.221 386.257 339.979 386.928C339.01 386.928 327.255 385.427 326.286 384.756C325.317 385.427 325.418 380.452 324.106 384.085C323.864 384.756 322.895 385.427 321.442 385.427C319.989 385.427 316.002 388.941 315.517 388.494L314.791 387.823C314.952 388.121 315.13 388.718 314.549 388.718C313.822 388.718 310.189 387.376 310.189 387.152C310.189 386.928 309.947 388.941 307.283 388.718C304.619 388.494 300.986 388.27 300.501 388.047C300.114 387.868 297.434 388.718 296.142 389.165C293.962 388.941 282.154 382.238 279.49 380.672C276.826 379.107 278.279 382.686 274.404 382.909C270.529 383.133 266.654 382.238 265.443 382.238C263.99 382.686 263.205 390.06 260.056 389.612C257.537 389.255 253.355 387.823 251.579 387.152C248.027 386.928 239.373 386.481 233.173 386.481C225.423 386.481 220.337 389.836 212.829 389.612C204.594 387.376 197.328 384.02 192.485 385.139C187.641 386.257 169.96 389.389 163.179 389.165C169.185 387.197 174.401 384.468 176.257 383.349C174.078 384.244 166.376 386.302 153.007 387.376C153.007 387.376 150.737 386.351 150.212 384.207C149.283 380.414 147.84 380.62 146.49 377.77C144.582 379.678 142.078 363.886 142.078 363.886C142.078 363.886 140.48 358.419 138.326 359.281C135.694 360.334 136.683 357.586 137.273 356.649C139.809 352.616 133.794 344.921 132.574 344.806C132.973 344.681 133.459 344.228 131.742 342.832C128.912 340.529 129.965 341.253 130.557 339.871C131.149 338.489 131.867 333.848 130.885 330.198C129.532 325.168 124.99 324.392 122.525 319.803C121.019 316.999 119.365 315.723 119.496 312.236C119.628 308.749 118.838 310.591 118.838 310.591C118.838 310.591 118.969 309.012 117.916 308.288C117.603 308.073 118.678 308.239 118.179 307.038C117.633 305.72 115.755 303.092 115.283 301.708C113.374 301.709 114.56 299.904 114.098 298.748L113.103 296.263L112.254 294.142L112.123 293.813L111.094 291.244L110.952 290.887C109.746 287.875 107.71 288.51 107.51 288.011L106.631 285.816L106.456 285.379L106.051 284.367C106.012 284.27 106.5 283.58 106.461 283.483C106.16 282.731 105.331 282.568 105.029 281.812L104.875 281.427C104.619 280.789 101.204 279.886 100.947 279.245C100.767 278.794 102.889 277.421 102.709 276.969C102.504 276.457 101.876 276.797 101.671 276.284C101.611 276.135 105.137 273.498 105.077 273.35C104.713 272.44 101.692 273.476 101.326 272.561C101.187 272.213 99.2977 273.216 99.1582 272.868C99.011 272.5 97.261 271.943 97.1135 271.574C96.807 270.808 95.0043 252.952 94.6964 252.182L94.5202 251.742L93.2787 248.64L93.1328 248.276C92.8923 247.675 92.1322 246.438 91.4641 245.312L90.4076 243.375C89.9937 242.341 89.8037 240.912 88.8163 239.399C88.7667 239.275 80.9633 226.538 82.2268 231.264C75.6101 212.792 72.7827 193.375 65.9694 175.641C61.6568 164.417 54.7859 162.007 48.7873 145.112C42.2134 122.965 36.8864 104.073 32.4017 100.906C27.9171 97.7385 37.8548 94.9077 29.5881 93.2534C30.3509 87.6049 21.1801 78.553 19.1602 72.9987C15.4579 62.8178 14.6408 57.153 12.773 50.3641C12.3138 48.6952 15.7996 44.5732 9.68297 42.644C8.90034 38.8187 8.54266 35.9955 5.426 32.8795C2.30934 29.7636 3.59894 24.4769 3.59894 20.4583C3.59894 16.4396 -3.70925 9.11899 2.50275 9.11899C8.71475 9.11899 3.44477 9.57562 7.17599 5.84521C10.161 2.8609 23.2351 2.53155 24.062 5.84521C28.2183 5.84521 30.4561 6.927 33.9282 6.927C38.2682 6.927 35.7552 4.25219 50.7371 6.927C52.297 6.927 57.2426 4.34796 59.5205 3.05847Z" fill="#D9D9D9"/>
        </mask>
    </defs>
</svg>