<svg width="193" height="188" viewBox="0 0 193 188" fill="none" xmlns="http://www.w3.org/2000/svg">
<circle cx="97.0681" cy="30.8919" r="17.3091" stroke="#FF1C00" stroke-width="5.39326"/>
<circle cx="58.8755" cy="43.6228" r="11.853" stroke="#FF1C00" stroke-width="5.39326"/>
<circle cx="14.5497" cy="14.5497" r="11.853" transform="matrix(-1 0 0 1 147.992 29.0731)" stroke="#FF1C00" stroke-width="5.39326"/>
<path d="M86.9519 54.5353H96.1671H105.366C114.574 54.5353 120.712 60.7708 120.712 72.2027L120.704 83.8944C120.712 87.0122 118.658 89.0907 115.589 89.0907H96.1671H76.7297C73.6606 89.0907 71.6066 87.0122 71.6146 83.8944L71.6066 72.2027C71.6066 60.7708 77.7447 54.5353 86.9519 54.5353Z" stroke="#FF1C00" stroke-width="5.39326"/>
<path d="M56.785 63.6287H64.3318C64.3318 63.6287 62.904 66.6295 62.904 69.6304C62.904 72.6313 62.9107 90.9093 62.9107 90.9093H46.7633C44.2137 90.9093 42.5073 89.2761 42.514 86.8265L42.5073 77.5102C42.5073 68.528 49.1363 63.6287 56.785 63.6287Z" stroke="#FF1C00" stroke-width="5.39326" stroke-linejoin="round"/>
<path d="M135.533 63.6287H127.987C127.987 63.6287 129.414 66.6295 129.414 69.6304C129.414 72.6313 129.408 83.6344 129.408 83.6344H145.555C148.105 83.6344 149.811 82.0013 149.804 79.5516L149.811 77.5102C149.811 68.528 143.182 63.6287 135.533 63.6287Z" stroke="#FF1C00" stroke-width="5.39326" stroke-linejoin="round"/>
<mask id="path-7-inside-1_45_160" fill="white">
<path fill-rule="evenodd" clip-rule="evenodd" d="M144.261 78.2241H94.0396H48.7392C35.4983 78.2241 23.9389 87.1925 20.6487 100.018L5.68201 158.36C2.59815 170.381 10.2829 182.515 22.4687 184.866C31.8393 186.673 41.2823 182.1 45.6745 173.628L52.8618 159.764C54.6456 156.323 58.1984 154.163 62.0741 154.163H96.7734H130.926C134.802 154.163 138.354 156.323 140.138 159.764L147.326 173.628C151.718 182.1 161.161 186.673 170.531 184.866C182.717 182.515 190.402 170.381 187.318 158.36L172.351 100.018C169.061 87.1925 157.502 78.2241 144.261 78.2241ZM62.2221 98.2635C59.3096 98.2635 56.9486 100.625 56.9486 103.537V109.865H50.6203C47.7079 109.865 45.3468 112.226 45.3468 115.139C45.3468 118.051 47.7079 120.412 50.6203 120.412H56.9486V126.741C56.9486 129.653 59.3096 132.014 62.2221 132.014C65.1346 132.014 67.4956 129.653 67.4956 126.741V120.412H73.8239C76.7364 120.412 79.0974 118.051 79.0974 115.139C79.0974 112.226 76.7364 109.865 73.8239 109.865H67.4956V103.537C67.4956 100.625 65.1346 98.2635 62.2221 98.2635ZM136.052 104.592C136.052 107.504 133.691 109.865 130.778 109.865C127.866 109.865 125.504 107.504 125.504 104.592C125.504 101.679 127.866 99.3182 130.778 99.3182C133.691 99.3182 136.052 101.679 136.052 104.592ZM136.052 126.741C136.052 129.653 133.691 132.014 130.778 132.014C127.866 132.014 125.504 129.653 125.504 126.741C125.504 123.828 127.866 121.467 130.778 121.467C133.691 121.467 136.052 123.828 136.052 126.741ZM136.579 115.666C136.579 118.579 138.94 120.94 141.852 120.94C144.765 120.94 147.126 118.579 147.126 115.666C147.126 112.754 144.765 110.393 141.852 110.393C138.94 110.393 136.579 112.754 136.579 115.666ZM119.704 120.94C116.791 120.94 114.43 118.579 114.43 115.666C114.43 112.754 116.791 110.393 119.704 110.393C122.616 110.393 124.977 112.754 124.977 115.666C124.977 118.579 122.616 120.94 119.704 120.94Z"/>
</mask>
<path fill-rule="evenodd" clip-rule="evenodd" d="M144.261 78.2241H94.0396H48.7392C35.4983 78.2241 23.9389 87.1925 20.6487 100.018L5.68201 158.36C2.59815 170.381 10.2829 182.515 22.4687 184.866C31.8393 186.673 41.2823 182.1 45.6745 173.628L52.8618 159.764C54.6456 156.323 58.1984 154.163 62.0741 154.163H96.7734H130.926C134.802 154.163 138.354 156.323 140.138 159.764L147.326 173.628C151.718 182.1 161.161 186.673 170.531 184.866C182.717 182.515 190.402 170.381 187.318 158.36L172.351 100.018C169.061 87.1925 157.502 78.2241 144.261 78.2241ZM62.2221 98.2635C59.3096 98.2635 56.9486 100.625 56.9486 103.537V109.865H50.6203C47.7079 109.865 45.3468 112.226 45.3468 115.139C45.3468 118.051 47.7079 120.412 50.6203 120.412H56.9486V126.741C56.9486 129.653 59.3096 132.014 62.2221 132.014C65.1346 132.014 67.4956 129.653 67.4956 126.741V120.412H73.8239C76.7364 120.412 79.0974 118.051 79.0974 115.139C79.0974 112.226 76.7364 109.865 73.8239 109.865H67.4956V103.537C67.4956 100.625 65.1346 98.2635 62.2221 98.2635ZM136.052 104.592C136.052 107.504 133.691 109.865 130.778 109.865C127.866 109.865 125.504 107.504 125.504 104.592C125.504 101.679 127.866 99.3182 130.778 99.3182C133.691 99.3182 136.052 101.679 136.052 104.592ZM136.052 126.741C136.052 129.653 133.691 132.014 130.778 132.014C127.866 132.014 125.504 129.653 125.504 126.741C125.504 123.828 127.866 121.467 130.778 121.467C133.691 121.467 136.052 123.828 136.052 126.741ZM136.579 115.666C136.579 118.579 138.94 120.94 141.852 120.94C144.765 120.94 147.126 118.579 147.126 115.666C147.126 112.754 144.765 110.393 141.852 110.393C138.94 110.393 136.579 112.754 136.579 115.666ZM119.704 120.94C116.791 120.94 114.43 118.579 114.43 115.666C114.43 112.754 116.791 110.393 119.704 110.393C122.616 110.393 124.977 112.754 124.977 115.666C124.977 118.579 122.616 120.94 119.704 120.94Z" fill="#181818"/>
<path d="M20.6487 100.018L14.8369 98.527L20.6487 100.018ZM5.68201 158.36L11.4938 159.851L5.68201 158.36ZM22.4687 184.866L23.6052 178.974H23.6052L22.4687 184.866ZM45.6745 173.628L51.0012 176.389V176.389L45.6745 173.628ZM52.8618 159.764L47.5351 157.002V157.002L52.8618 159.764ZM140.138 159.764L134.812 162.525V162.525L140.138 159.764ZM147.326 173.628L152.652 170.866V170.866L147.326 173.628ZM170.531 184.866L169.395 178.974L170.531 184.866ZM187.318 158.36L181.506 159.851L187.318 158.36ZM172.351 100.018L178.163 98.527V98.527L172.351 100.018ZM56.9486 109.865V115.865H62.9486V109.865H56.9486ZM56.9486 120.412H62.9486V114.412H56.9486V120.412ZM67.4956 120.412V114.412H61.4956V120.412H67.4956ZM67.4956 109.865H61.4956V115.865H67.4956V109.865ZM94.0396 84.2241H144.261V72.2241H94.0396V84.2241ZM48.7392 84.2241H94.0396V72.2241H48.7392V84.2241ZM26.4605 101.509C29.07 91.3369 38.2378 84.2241 48.7392 84.2241V72.2241C32.7589 72.2241 18.8078 83.048 14.8369 98.527L26.4605 101.509ZM11.4938 159.851L26.4605 101.509L14.8369 98.527L-0.129798 156.869L11.4938 159.851ZM23.6052 178.974C14.8133 177.279 9.26886 168.524 11.4938 159.851L-0.129798 156.869C-4.07256 172.238 5.7525 187.752 21.3323 190.757L23.6052 178.974ZM40.3477 170.866C37.1788 176.979 30.3658 180.279 23.6052 178.974L21.3323 190.757C33.3127 193.068 45.3857 187.222 51.0012 176.389L40.3477 170.866ZM47.5351 157.002L40.3477 170.866L51.0012 176.389L58.1886 162.525L47.5351 157.002ZM62.0741 148.163C55.9573 148.163 50.3503 151.572 47.5351 157.002L58.1886 162.525C58.941 161.074 60.4394 160.163 62.0741 160.163V148.163ZM96.7734 148.163H62.0741V160.163H96.7734V148.163ZM130.926 148.163H96.7734V160.163H130.926V148.163ZM145.465 157.002C142.65 151.572 137.043 148.163 130.926 148.163V160.163C132.561 160.163 134.059 161.074 134.812 162.525L145.465 157.002ZM152.652 170.866L145.465 157.002L134.812 162.525L141.999 176.389L152.652 170.866ZM169.395 178.974C162.634 180.279 155.821 176.979 152.652 170.866L141.999 176.389C147.614 187.222 159.687 193.068 171.668 190.757L169.395 178.974ZM181.506 159.851C183.731 168.524 178.187 177.279 169.395 178.974L171.668 190.757C187.248 187.752 197.073 172.238 193.13 156.869L181.506 159.851ZM166.54 101.509L181.506 159.851L193.13 156.869L178.163 98.527L166.54 101.509ZM144.261 84.2241C154.762 84.2241 163.93 91.3369 166.54 101.509L178.163 98.527C174.192 83.048 160.241 72.2241 144.261 72.2241V84.2241ZM62.9486 103.537C62.9486 103.938 62.6233 104.264 62.2221 104.264V92.2635C55.9959 92.2635 50.9486 97.3109 50.9486 103.537H62.9486ZM62.9486 109.865V103.537H50.9486V109.865H62.9486ZM50.6203 115.865H56.9486V103.865H50.6203V115.865ZM51.3468 115.139C51.3468 115.54 51.0216 115.865 50.6203 115.865V103.865C44.3941 103.865 39.3468 108.913 39.3468 115.139H51.3468ZM50.6203 114.412C51.0216 114.412 51.3468 114.738 51.3468 115.139H39.3468C39.3468 121.365 44.3941 126.412 50.6203 126.412V114.412ZM56.9486 114.412H50.6203V126.412H56.9486V114.412ZM62.9486 126.741V120.412H50.9486V126.741H62.9486ZM62.2221 126.014C62.6233 126.014 62.9486 126.339 62.9486 126.741H50.9486C50.9486 132.967 55.9959 138.014 62.2221 138.014V126.014ZM61.4956 126.741C61.4956 126.339 61.8209 126.014 62.2221 126.014V138.014C68.4483 138.014 73.4956 132.967 73.4956 126.741H61.4956ZM61.4956 120.412V126.741H73.4956V120.412H61.4956ZM73.8239 114.412H67.4956V126.412H73.8239V114.412ZM73.0974 115.139C73.0974 114.738 73.4227 114.412 73.8239 114.412V126.412C80.0501 126.412 85.0974 121.365 85.0974 115.139H73.0974ZM73.8239 115.865C73.4227 115.865 73.0974 115.54 73.0974 115.139H85.0974C85.0974 108.913 80.0501 103.865 73.8239 103.865V115.865ZM67.4956 115.865H73.8239V103.865H67.4956V115.865ZM61.4956 103.537V109.865H73.4956V103.537H61.4956ZM62.2221 104.264C61.8209 104.264 61.4956 103.938 61.4956 103.537H73.4956C73.4956 97.3109 68.4483 92.2635 62.2221 92.2635V104.264ZM130.778 115.865C137.004 115.865 142.052 110.818 142.052 104.592H130.052C130.052 104.191 130.377 103.865 130.778 103.865V115.865ZM119.504 104.592C119.504 110.818 124.552 115.865 130.778 115.865V103.865C131.179 103.865 131.504 104.191 131.504 104.592H119.504ZM130.778 93.3182C124.552 93.3182 119.504 98.3656 119.504 104.592H131.504C131.504 104.993 131.179 105.318 130.778 105.318V93.3182ZM142.052 104.592C142.052 98.3656 137.004 93.3182 130.778 93.3182V105.318C130.377 105.318 130.052 104.993 130.052 104.592H142.052ZM130.778 138.014C137.004 138.014 142.052 132.967 142.052 126.741H130.052C130.052 126.339 130.377 126.014 130.778 126.014V138.014ZM119.504 126.741C119.504 132.967 124.552 138.014 130.778 138.014V126.014C131.179 126.014 131.504 126.339 131.504 126.741H119.504ZM130.778 115.467C124.552 115.467 119.504 120.514 119.504 126.741H131.504C131.504 127.142 131.179 127.467 130.778 127.467V115.467ZM142.052 126.741C142.052 120.514 137.004 115.467 130.778 115.467V127.467C130.377 127.467 130.052 127.142 130.052 126.741H142.052ZM141.852 114.94C142.254 114.94 142.579 115.265 142.579 115.666H130.579C130.579 121.892 135.626 126.94 141.852 126.94V114.94ZM141.126 115.666C141.126 115.265 141.451 114.94 141.852 114.94V126.94C148.079 126.94 153.126 121.892 153.126 115.666H141.126ZM141.852 116.393C141.451 116.393 141.126 116.067 141.126 115.666H153.126C153.126 109.44 148.079 104.393 141.852 104.393V116.393ZM142.579 115.666C142.579 116.067 142.254 116.393 141.852 116.393V104.393C135.626 104.393 130.579 109.44 130.579 115.666H142.579ZM108.43 115.666C108.43 121.892 113.477 126.94 119.704 126.94V114.94C120.105 114.94 120.43 115.265 120.43 115.666H108.43ZM119.704 104.393C113.477 104.393 108.43 109.44 108.43 115.666H120.43C120.43 116.067 120.105 116.393 119.704 116.393V104.393ZM130.977 115.666C130.977 109.44 125.93 104.393 119.704 104.393V116.393C119.302 116.393 118.977 116.067 118.977 115.666H130.977ZM119.704 126.94C125.93 126.94 130.977 121.892 130.977 115.666H118.977C118.977 115.265 119.302 114.94 119.704 114.94V126.94Z" fill="#FF1C00" mask="url(#path-7-inside-1_45_160)"/>
</svg>
